<svg width="25" height="25" viewBox="0 0 18 18" fill="none" xmlns="http://www.w3.org/2000/svg">
<g clip-path="url(#clip0_0_266)">
<path d="M11.8125 15.75L7.875 12.9375L3.9375 15.75V5.0625C3.9375 4.91332 3.99676 4.77024 4.10225 4.66475C4.20774 4.55926 4.35082 4.5 4.5 4.5H11.25C11.3992 4.5 11.5423 4.55926 11.6477 4.66475C11.7532 4.77024 11.8125 4.91332 11.8125 5.0625V15.75Z" stroke="#29B24E" stroke-width="1.125" stroke-linecap="round" stroke-linejoin="round"/>
<path d="M6.1875 4.5V2.8125C6.1875 2.66332 6.24676 2.52024 6.35225 2.41475C6.45774 2.30926 6.60082 2.25 6.75 2.25H13.5C13.6492 2.25 13.7923 2.30926 13.8977 2.41475C14.0032 2.52024 14.0625 2.66332 14.0625 2.8125V13.5L11.8125 11.8898" stroke="#29B24E" stroke-width="1.125" stroke-linecap="round" stroke-linejoin="round"/>
</g>
<defs>
<clipPath id="clip0_0_266">
<rect width="18" height="18" fill="white"/>
</clipPath>
</defs>
</svg>
